<?xml version="1.0" standalone="no"?>
<!DOCTYPE svg PUBLIC "-//W3C//DTD SVG 20010904//EN" "http://www.w3.org/TR/2001/REC-SVG-20010904/DTD/svg10.dtd">
<!-- Created using Karbon, part of Calligra: http://www.calligra.org/karbon -->
<svg xmlns="http://www.w3.org/2000/svg" xmlns:xlink="http://www.w3.org/1999/xlink" width="476.221pt" height="673.512pt">
<defs/>
<g id="001">
  <path id="shape0" transform="translate(131.992, 262.234)" fill="#050606" d="M0 12.024L30.832 0L35.793 13.625L31.637 15.243L28.34 6.192L18.985 9.84L21.856 17.727L17.699 19.348L14.828 11.461L1.664 16.594Z"/>
  <path id="shape1" transform="translate(140.637, 279.613)" fill="#050606" d="M27.226 6.5L18.238 11.649L19.539 14.078C19.941 14.832 20.363 15.375 20.804 15.703C21.246 16.035 21.722 16.219 22.234 16.254C22.734 16.262 23.281 16.149 23.879 15.918C24.476 15.684 25.14 15.36 25.867 14.938C26.597 14.524 27.218 14.114 27.726 13.715C28.234 13.313 28.625 12.871 28.894 12.387C29.367 11.422 29.207 10.2 28.414 8.719ZM0 16.508L28.832 0L32.504 6.871C35.191 11.903 33.715 16.032 28.074 19.262C26.375 20.235 24.785 20.789 23.304 20.926C21.824 21.059 20.355 20.649 18.894 19.7L8.199 31.844L5.777 27.317L15.961 16.289L14.593 13.735L2.285 20.782Z"/>
  <path id="shape2" transform="translate(153.523, 298.367)" fill="#050606" d="M0 19.942L26.727 0L29.485 3.961L2.762 23.903Z"/>
  <path id="shape3" transform="translate(162.223, 307.207)" fill="#050606" d="M24.16 6.707L6.465 23.582L7.941 25.238C8.84 26.246 9.722 26.731 10.586 26.688C11.449 26.645 12.402 26.129 13.445 25.133L25.117 13.996C26.07 13.09 26.629 12.188 26.797 11.289C26.961 10.395 26.574 9.414 25.632 8.359ZM0 23.106L24.226 0L28.961 5.313C30.804 7.379 31.652 9.465 31.515 11.574C31.379 13.68 30.312 15.688 28.316 17.59L16.984 28.398C14.715 30.559 12.535 31.59 10.445 31.477C8.355 31.367 6.355 30.242 4.453 28.109Z"/>
  <path id="shape4" transform="translate(177.988, 325.57)" fill="#050606" d="M16.309 20.063L21.996 8.938L21.922 8.879L12.633 16.996ZM0 21.778L26.399 0L29.461 2.551L14.524 33.887L10.848 30.821L14.207 24.215L9.2 20.039L3.676 24.844Z"/>
  <path id="shape5" transform="translate(200.809, 332.477)" fill="#050606" d="M0 32.418L7.429 20.222L12.093 0L16.32 2.761L12.546 16.316L12.625 16.367L22.82 7L27.046 9.757L11.421 22.832L3.988 35.023Z"/>
  <path id="shape6" transform="translate(232.887, 347.383)" fill="#ee2431" d="M29.855 7.941L15.429 39.012L11.183 37.652L14.054 15.414L13.968 15.387L4.246 35.433L0 34.074L5.054 0L9.828 1.527L5.902 22.93L5.988 22.957L15.707 3.41L19.156 4.512L16.492 26.871L16.582 26.898L25.082 6.41Z"/>
  <path id="shape7" transform="translate(262.336, 355.57)" fill="#ee2431" d="M0 33.86L3.879 0L8.566 0.575L6.906 15.078L12.695 15.789L14.355 1.285L19.043 1.86L15.164 35.719L10.477 35.145L12.207 20.071L6.414 19.36L4.687 34.434Z"/>
  <path id="shape8" transform="translate(287.25, 357.453)" fill="#ee2431" d="M0.047 34.102L0 0.008L4.719 0L4.766 34.094Z"/>
  <path id="shape9" transform="translate(298.091, 356.133)" fill="#ee2431" d="M16.0303 9.15165L11.3433 9.72165L11.2183 8.62865C11.0933 7.51465 10.7293 6.58965 10.1363 5.83965C9.53832 5.09365 8.63932 4.79665 7.44432 4.94065C6.80432 5.01865 6.29632 5.20665 5.92532 5.50765C5.55732 5.81165 5.27232 6.16765 5.06932 6.57765C4.87032 7.01865 4.75332 7.50765 4.72232 8.04265C4.69032 8.57365 4.70632 9.12865 4.76832 9.69865C4.84732 10.3666 4.93232 10.9176 5.02632 11.3546C5.12432 11.7926 5.28432 12.1796 5.50732 12.5036C5.73332 12.8316 6.03432 13.0966 6.41732 13.3076C6.79632 13.5186 7.30732 13.7146 7.94832 13.8936L11.7023 14.9326C12.7883 15.2186 13.6863 15.6006 14.3933 16.0776C15.1003 16.5546 15.6793 17.1326 16.1283 17.8196C16.5543 18.5386 16.8783 19.3746 17.1123 20.3276C17.3433 21.2806 17.5303 22.3746 17.6713 23.6086C17.8313 25.0386 17.8433 26.3786 17.7063 27.6326C17.5693 28.8866 17.2453 29.9796 16.7293 30.9096C16.1863 31.8746 15.4213 32.6756 14.4363 33.3076C13.4523 33.9446 12.2103 34.3506 10.7103 34.5346C9.57732 34.6716 8.49532 34.5936 7.46832 34.3006C6.43632 34.0076 5.53432 33.5386 4.74532 32.8936C3.96032 32.2536 3.30432 31.4716 2.78032 30.5546C2.25732 29.6366 1.92932 28.6086 1.80032 27.4686L1.59332 25.6596L6.28432 25.0896L6.45632 26.6126C6.55732 27.4996 6.90132 28.2726 7.48732 28.9216C8.07332 29.5736 8.96432 29.8276 10.1593 29.6826C10.9563 29.5856 11.5613 29.3896 11.9793 29.1006C12.3973 28.8076 12.7023 28.4256 12.8973 27.9526C13.0933 27.4756 13.1793 26.9296 13.1553 26.3046C13.1283 25.6826 13.0733 24.9876 12.9873 24.2256C12.8893 23.3396 12.7723 22.6126 12.6473 22.0506C12.5223 21.4876 12.3473 21.0426 12.1243 20.7186C11.8703 20.3936 11.5543 20.1436 11.1793 19.9646C10.8003 19.7846 10.3043 19.6046 9.69432 19.4216L6.17932 18.4016C4.05732 17.7886 2.57332 16.8196 1.72232 15.4916C0.874318 14.1676 0.327318 12.4406 0.0893175 10.3156C-0.0556825 9.04665 -0.0246825 7.81965 0.186318 6.63965C0.389318 5.45665 0.784318 4.41365 1.36632 3.50765C1.91732 2.60465 2.65932 1.84665 3.60032 1.23365C4.54232 0.620648 5.70232 0.233648 7.08132 0.0656483C8.24132 -0.0783517 9.33532 0.0146483 10.3503 0.343648C11.3663 0.667648 12.2643 1.15565 13.0543 1.80065C14.6363 3.14765 15.5383 4.80765 15.7613 6.77265Z"/>
  <path id="shape10" transform="translate(317.313, 350.152)" fill="#ee2431" d="M8.683 37.375L0 4.481L4.554 3.196L8.519 18.207L8.605 18.184L11.296 1.289L15.847 0L13.117 14.922L25.695 32.563L20.871 33.93L11.839 20.793L10.64 26.246L13.238 36.086Z"/>
  <path id="shape11" transform="translate(335.172, 342.063)" fill="#ee2431" d="M19.187 35.878L13.582 22.683L0 7.359L4.574 5.281L13.316 16.105L13.402 16.066L11.609 2.082L16.183 0L17.902 20.714L23.508 33.914Z"/>
  <path id="shape12" transform="translate(362.98, 321.637)" fill="#050606" d="M20.239 40.437L0 13.531L3.579 10.648L19.079 21.039L19.153 20.98L13.184 2.91L16.797 0L37.04 26.906L33.313 29.906L21.004 13.543L20.93 13.601L25.942 28.136L24.079 29.636L11.727 21.015L11.657 21.074L23.961 37.437Z"/>
  <path id="shape13" transform="translate(386.785, 310.828)" fill="#050606" d="M18.766 14.606L8.367 8.082L8.305 8.152L15.598 18.223ZM19.477 31.555L0 3.016L2.641 0L31.996 17.25L28.828 20.871L22.649 17.016L18.332 21.949L22.645 27.934Z"/>
  <path id="shape14" transform="translate(396.227, 290.309)" fill="#050606" d="M27.296 31.156L0 12.062L7.875 0L11.554 2.574L6.32 10.589L14.605 16.382L19.164 9.398L22.843 11.972L18.285 18.957L29.937 27.105Z"/>
  <path id="shape15" transform="translate(406.211, 281.766)" fill="#050606" d="M29.129 20.257L0 4.32L2.207 0L31.336 15.937Z"/>
  <path id="shape16" transform="translate(413.012, 267.512)" fill="#050606" d="M21.531 7.676L9.566 5.433L9.531 5.523L19.82 12.23ZM28.047 23.246L0 3.797L1.429 0L34.804 5.258L33.093 9.808L25.992 8.496L23.66 14.699L29.758 18.691Z"/>
  <path id="shape17" transform="translate(200.809, 176.637)" fill="#231f20" d="M64.441 80.7106C68.539 83.2296 72.457 86.1716 76.777 88.1756C83.964 91.5106 84.242 91.2026 87.136 83.6166C87.543 82.5466 87.617 81.3356 87.921 79.7966C86.027 79.2066 84.168 78.9176 82.597 78.0536C81.132 77.2496 79.98 75.8356 77.695 73.8076C81.55 72.8116 84.449 72.0656 88.972 70.8976C85.207 68.7926 82.734 67.4136 79.886 65.8196C82.187 65.3936 84.179 65.0266 86.734 64.5536C87.004 61.2926 88.464 57.3586 87.187 55.0696C85.933 52.8236 81.89 52.2496 79.414 49.8076C80.937 50.1006 82.461 50.3976 84.429 50.7806L84.429 34.6126C83.812 34.3626 83.191 34.1086 82.574 33.8586C80.382 38.8466 78.386 43.9446 75.933 48.7926C74.019 52.5696 71.531 56.0386 69.296 59.6396C68.781 59.3896 68.265 59.1396 67.75 58.8896C69.445 53.6596 71.144 48.4256 72.992 42.7176C66.332 39.9836 59.925 37.3426 53.504 34.7416C52.992 34.5346 52.078 34.3196 51.863 34.5736C47.597 39.6126 43.429 34.9326 38.914 34.2886C39.007 35.3826 39.078 36.2256 39.257 38.3856C37.031 34.7846 34.582 32.3546 33.957 29.4996C32.519 22.9646 28.332 21.0536 22.718 19.6006C16.777 18.0616 11.078 15.4216 5.402 12.9526C3.488 12.1166 1.968 10.3196 0 8.75362C10.351 2.44062 167.062 -3.32438 176.269 2.25762C174.507 3.73762 173.144 5.51062 171.375 6.26862C159.855 11.1866 148.207 15.7806 136.718 20.7686C134.933 21.5426 133.421 23.5736 132.336 25.3786C129.593 29.9286 127.16 34.6826 124.605 39.3546C124.05 39.0966 123.5 38.8396 122.945 38.5816C122.781 37.1086 122.613 35.6396 122.218 32.1786C120.246 34.6716 118.609 35.8856 118.148 37.4676C116.195 44.1436 114.566 50.9216 112.867 57.6756C111.851 61.7296 110.785 65.7806 110.046 69.8936C109.855 70.9646 110.828 72.2536 111.261 73.4446C109.125 76.6986 107.238 80.1716 104.804 83.1716C93.613 96.9796 74.195 95.7376 64.441 80.7106"/>
  <path id="shape18" transform="translate(204.66, 229.652)" fill="#231f20" d="M50.031 31.196C49.594 31.489 49.156 31.782 48.715 32.075C58.555 49.59 68.391 67.102 78.957 85.911C80.711 78.606 80.379 73.75 76.645 69.09C72.485 63.899 68.969 58.161 65.137 52.688C60.117 45.512 55.067 38.36 50.031 31.196M83.43 84.723C93.61 66.481 103.789 48.243 113.973 30C103.496 42.688 94.438 56.305 84.793 69.461C81.211 74.34 81.067 79.004 83.43 84.723M114.754 10.082C115.766 7.344 116.781 4.602 118.481 0C125.102 8.266 130.953 15.688 136.965 22.969C138.149 24.403 139.852 25.52 141.512 26.371C148.563 29.985 155.692 33.446 162.449 38.219C153.676 36.383 144.903 34.543 135.555 32.586C133.274 41.907 130.766 50.684 129.07 59.625C128.11 64.7 125.758 66.567 121.055 66.836C116.867 67.075 112.719 68.024 107.766 68.778C108.996 75.039 109.977 80.868 111.328 86.602C112.172 90.192 111.356 92.434 108.309 94.582C100.496 100.082 92.856 105.856 85.348 111.789C82.516 114.028 80.508 113.864 77.754 111.692C70.551 106.004 63.32 100.289 55.688 95.258C51.403 92.434 50.774 89.496 52.098 84.848C53.543 79.77 54.289 74.477 55.445 68.762C50.11 67.977 45.578 67.118 41.012 66.696C37.254 66.348 35.32 64.809 34.453 60.762C32.5 51.633 29.992 42.633 27.481 32.668C18.328 34.571 9.383 36.43 0.442 38.286C0.293 37.926 0.149 37.563 0 37.203C6.442 33.993 12.848 30.711 19.332 27.606C23.238 25.735 25.645 23.047 28.106 19.051C32.25 12.328 38.598 7.055 44.922 0.188C46.535 5.125 47.602 8.383 48.653 11.61C48.535 11.407 48.453 11.219 48.324 11.075C48.211 10.953 48.047 10.883 47.903 10.793C47.992 12.61 47.387 15.008 48.281 16.153C59.028 29.942 69.996 43.547 80.934 57.176C81.102 57.383 81.645 57.266 82.461 57.344C93.258 43.668 104.278 29.856 115.028 15.817C115.891 14.688 114.891 12.032 114.754 10.082"/>
  <path id="shape19" transform="translate(242.908, 113.545)" fill="#231f20" d="M21.9196 0.485929C18.6036 3.55693 16.0956 5.88093 13.5836 8.20493C13.7246 8.39993 13.8646 8.59593 14.0056 8.79093C17.9896 6.52493 21.9746 4.26393 26.0876 1.92793C28.9466 11.2519 21.0756 19.2169 8.7086 19.1189C8.9236 22.6969 7.9506 27.2479 9.7126 29.4319C11.1966 31.2749 15.9396 30.9709 19.1036 30.5409C23.2556 29.9749 27.4706 28.8029 31.2906 27.0329C33.8726 25.8339 36.8216 23.5959 37.8496 21.0569C40.1146 15.4389 41.2756 9.34193 43.2046 2.27093C47.6466 1.59593 53.2676 0.200929 58.9236 0.00992927C66.6696 -0.248071 71.9006 4.54893 75.4436 11.2319C82.5916 24.7209 83.5956 39.6969 85.3686 55.2169C56.7246 51.1659 28.5996 50.7359 0.579602 56.0139C-0.787398 45.3849 -0.357398 43.4079 8.8416 40.7129C17.8186 38.0839 27.2986 37.2989 36.5486 35.6539C38.3146 35.3419 40.0446 34.8099 43.0366 34.0759C35.2086 30.1889 19.0446 32.9159 2.2906 39.8999C0.997602 25.1699 10.1506 5.86493 21.9196 0.485929"/>
  <path id="shape20" transform="translate(119.504, 57.078)" fill="none" stroke="#000000" stroke-width="0.87213500000" stroke-linecap="butt" stroke-linejoin="miter" stroke-miterlimit="4.00000000000" d="M340.16 170.078C340.16 264.012 264.012 340.156 170.082 340.156C76.148 340.156 0 264.012 0 170.078C0 76.145 76.148 0 170.082 0C264.012 0 340.16 76.145 340.16 170.078Z"/>
  <path id="shape21" transform="translate(164.293, 101.863)" fill="none" stroke="#000000" stroke-width="1.10911000000" stroke-linecap="butt" stroke-linejoin="miter" stroke-miterlimit="4.00000000000" d="M250.582 125.293C250.582 194.489 194.488 250.586 125.293 250.586C56.094 250.586 0 194.489 0 125.293C0 56.098 56.094 0 125.293 0C194.488 0 250.582 56.098 250.582 125.293Z"/>
 </g>
</svg>
